<svg width="70" height="70" viewBox="0 0 70 70" fill="none" xmlns="http://www.w3.org/2000/svg">
<path d="M68.6728 31.8804L38.1087 1.32065C37.6902 0.901969 37.1933 0.569838 36.6464 0.343235C36.0996 0.116633 35.5134 0 34.9214 0C34.3295 0 33.7433 0.116633 33.1964 0.343235C32.6496 0.569838 32.1527 0.901969 31.7342 1.32065L25.3904 7.66448L33.4405 15.7146C34.3899 15.3904 35.4113 15.3397 36.3881 15.5682C37.365 15.7968 38.2579 16.2953 38.965 17.0069C39.6721 17.7186 40.1649 18.6147 40.3871 19.593C40.6093 20.5713 40.5521 21.5924 40.2218 22.5397L47.9788 30.301C49.1264 29.8969 50.3774 29.8957 51.5259 30.2975C52.6743 30.6994 53.6516 31.4803 54.297 32.5117C54.9423 33.5432 55.2172 34.7636 55.0763 35.9721C54.9355 37.1806 54.3872 38.3051 53.522 39.1605C52.646 40.0418 51.4913 40.5917 50.2549 40.7162C49.0186 40.8406 47.7774 40.532 46.7433 39.843C45.7093 39.154 44.9465 38.1273 44.5853 36.9383C44.2242 35.7494 44.287 34.4719 44.7631 33.3242L37.5312 26.0878V45.1325C38.6304 45.6766 39.51 46.581 40.0233 47.6951C40.5365 48.8091 40.6525 50.0653 40.3518 51.2545C40.0511 52.4436 39.3519 53.4938 38.3708 54.2299C37.3897 54.9661 36.186 55.3438 34.9602 55.3C33.7344 55.2562 32.5606 54.7936 31.6346 53.9894C30.7085 53.1851 30.086 52.0877 29.8709 50.8802C29.6558 49.6726 29.8611 48.4278 30.4525 47.3532C31.044 46.2787 31.9858 45.4393 33.1211 44.9749V25.7553C32.4661 25.4869 31.8707 25.0916 31.3692 24.592C30.8678 24.0924 30.4701 23.4985 30.1993 22.8445C29.9284 22.1906 29.7897 21.4894 29.7911 20.7816C29.7924 20.0737 29.9339 19.3732 30.2073 18.7202L22.2753 10.7839L1.31884 31.7404C0.474336 32.5861 0 33.7325 0 34.9276C0 36.1228 0.474336 37.2691 1.31884 38.1149L31.883 68.679C32.3014 69.0977 32.7983 69.4298 33.3452 69.6564C33.8921 69.883 34.4782 69.9996 35.0702 69.9996C35.6622 69.9996 36.2483 69.883 36.7952 69.6564C37.3421 69.4298 37.8389 69.0977 38.2574 68.679L68.6772 38.2592C69.0965 37.8407 69.4292 37.3435 69.6562 36.7963C69.8832 36.249 70 35.6623 70 35.0698C70 34.4773 69.8832 33.8907 69.6562 33.3434C69.4292 32.7961 69.0965 32.299 68.6772 31.8804" fill="#FF4D00"/>
</svg>
