<svg width="77" height="70" viewBox="0 0 77 70" fill="none" xmlns="http://www.w3.org/2000/svg">
<path d="M45.6546 35.0085C45.6546 36.95 44.8992 38.812 43.5546 40.1852C42.2099 41.5583 40.386 42.3302 38.484 42.331C36.5813 42.331 34.7566 41.5596 33.4113 40.1863C32.0659 38.8131 31.3101 36.9506 31.3101 35.0085C31.3101 33.067 32.0655 31.205 33.4102 29.8319C34.7548 28.4587 36.5787 27.6869 38.4808 27.686C40.3834 27.686 42.2081 28.4575 43.5534 29.8307C44.8988 31.204 45.6546 33.0665 45.6546 35.0085ZM54.1502 0.000669699C49.8318 0.000669699 44.182 3.1445 38.4679 8.58725C32.7571 3.17397 27.104 0.0661661 22.7888 0.0661661C21.4734 0.0661661 20.2767 0.370725 19.2404 0.976567C14.8289 3.5735 13.8408 11.6656 16.1187 21.8208C6.3525 24.8991 0 29.8212 0 35.0085C0 40.2155 6.38458 45.1507 16.1796 48.2061C13.921 58.4006 14.9284 66.5058 19.3495 69.0994C20.3761 69.7118 21.5632 70 22.885 70C27.2002 70 32.8533 66.8562 38.5674 61.4069C44.2782 66.8234 49.9313 69.9312 54.2465 69.9312C55.5619 69.9312 56.7586 69.6365 57.7949 69.0307C62.2032 66.437 63.1945 58.3449 60.9166 48.1864C70.6475 45.1343 77 40.2024 77 35.0085C77 29.8016 70.6154 24.8664 60.8204 21.8044C63.079 11.6197 62.0716 3.508 57.6505 0.91107C56.5818 0.297564 55.3763 -0.0165222 54.1502 0.000669699ZM54.1342 3.57023V3.58988C54.8561 3.58988 55.4368 3.73397 55.9245 4.00578C58.0612 5.25676 58.9884 10.0151 58.2665 16.1357C58.0933 17.6421 57.811 19.2304 57.4645 20.8515C54.1838 20.0412 50.8536 19.457 47.4962 19.1027C45.4968 16.2864 43.3156 13.6093 40.9672 11.0892C46.0749 6.24248 50.8713 3.58333 54.1374 3.5735L54.1342 3.57023ZM22.7888 3.63572C26.0356 3.63572 30.8545 6.28178 35.975 11.1023C33.7741 13.4602 31.5796 16.1357 29.4942 19.0994C26.129 19.4496 22.7918 20.0383 19.5067 20.8613C19.1622 19.3254 18.8903 17.7736 18.6917 16.211C17.9538 10.0937 18.865 5.33863 20.9825 4.07127C21.5921 3.77654 22.2658 3.6521 22.7888 3.63572ZM38.4519 13.6239C39.9117 15.1565 41.3715 16.8726 42.8152 18.7458C41.4035 18.6803 39.9598 18.6344 38.5 18.6344C37.0242 18.6344 35.5644 18.6672 34.1367 18.7458C35.5483 16.8726 37.0081 15.1598 38.4519 13.6239ZM38.5 22.2236C40.8742 22.2236 43.2387 22.335 45.5647 22.5282C46.8673 24.4341 48.1378 26.4678 49.3602 28.6193C50.5537 30.7152 51.6381 32.8439 52.6263 34.9921C51.6381 37.1372 50.5537 39.2822 49.3763 41.3781C48.1571 43.5394 46.8962 45.596 45.5904 47.502C40.8813 47.9226 36.1453 47.928 31.4353 47.5183C30.0883 45.5423 28.8221 43.5101 27.6398 41.4272C26.4463 39.3313 25.3619 37.2027 24.3737 35.0544C25.3651 32.874 26.4495 30.739 27.6237 28.6554C28.8429 26.494 30.1038 24.4439 31.4096 22.538C33.7673 22.3253 36.1331 22.2182 38.5 22.2171V22.2236ZM26.8377 23.0554C26.0677 24.29 25.2977 25.5541 24.579 26.8542C23.8572 28.1314 23.1834 29.4151 22.5417 30.6989C21.6915 28.5506 20.9697 26.4088 20.3729 24.3228C22.4262 23.8316 24.5919 23.3927 26.8377 23.0554ZM50.1302 23.0554C52.36 23.3927 54.5096 23.8086 56.5661 24.3228C55.9886 26.3925 55.2668 28.5211 54.4486 30.653C53.1395 28.0463 51.6991 25.5103 50.1334 23.0554H50.1302ZM59.9573 25.2659C61.5102 25.7571 62.986 26.304 64.3688 26.8968C69.9256 29.3202 73.519 32.4902 73.519 35.0052C73.5029 37.5203 69.9096 40.7034 64.3528 43.1104C63.0052 43.6999 61.5294 44.2304 60.0055 44.7249C59.0418 41.3958 57.8628 38.1357 56.4763 34.966C57.92 31.6355 59.075 28.3836 59.9573 25.2594V25.2659ZM16.9817 25.279C17.8736 28.4229 19.0511 31.6879 20.5109 35.038C19.1344 38.1888 17.9702 41.4319 17.0266 44.7446C15.4738 44.2533 13.998 43.7032 12.6312 43.1072C7.07438 40.6936 3.48104 37.5203 3.48104 35.0052C3.48104 32.4902 7.07438 29.3005 12.6312 26.8968C13.9787 26.3073 15.4545 25.7768 16.9817 25.279ZM54.4486 39.2953C55.2988 41.4468 56.0207 43.5918 56.6175 45.6746C54.5641 46.1888 52.3953 46.6243 50.1495 46.9518C51.7132 44.4778 53.1461 41.9222 54.4486 39.2953ZM22.5417 39.3608C23.1834 40.6445 23.8572 41.9249 24.5951 43.2087C25.333 44.4859 26.087 45.7368 26.857 46.9518C24.6936 46.6324 22.546 46.2105 20.421 45.6877C20.9985 43.6246 21.7236 41.4894 22.5385 39.3575L22.5417 39.3608ZM57.4933 49.1427C57.8527 50.7571 58.135 52.3127 58.3082 53.8027C59.0462 59.9201 58.135 64.6751 56.0175 65.9458C55.5459 66.2405 54.9331 66.365 54.2112 66.365C50.9644 66.365 46.1455 63.7222 41.025 58.8984C43.2259 56.5405 45.4204 53.8682 47.5058 50.9078C51.0574 50.5214 54.4165 49.9286 57.4933 49.1427ZM19.5387 49.1754C22.6187 49.9417 25.9747 50.5345 29.507 50.9176C31.6245 53.8813 33.8223 56.5732 36.036 58.9278C30.9187 63.7844 26.1158 66.4436 22.8498 66.4436C22.2327 66.4485 21.6238 66.3002 21.0755 66.0113C18.9388 64.7668 18.0116 60.0052 18.7335 53.8846C18.9067 52.3782 19.1922 50.7932 19.5387 49.1754ZM34.1687 51.2713C35.5804 51.3368 37.0242 51.3826 38.484 51.3826C39.9598 51.3826 41.4196 51.3499 42.8473 51.2713C41.4356 53.1445 39.9758 54.8572 38.5321 56.3964C37.0723 54.8572 35.6125 53.1445 34.1687 51.2713Z" fill="#61DAFB"/>
</svg>
