<svg width="24" height="24" viewBox="0 0 24 24" fill="none" xmlns="http://www.w3.org/2000/svg">
<g clip-path="url(#clip0_60_1029)">
<path d="M16.9452 0.0560324C17.1796 0.15447 17.3483 0.365407 17.3952 0.613845L18.328 5.67166L23.3858 6.59978C23.6343 6.64666 23.8452 6.81541 23.9437 7.04978C24.0421 7.28416 24.014 7.55134 23.8687 7.76228L20.9483 11.9998L23.8687 16.2326C24.014 16.4435 24.0421 16.7107 23.9437 16.9451C23.8452 17.1795 23.6343 17.3482 23.3858 17.3951L18.328 18.3279L17.3952 23.3857C17.3483 23.6342 17.1796 23.8451 16.9452 23.9435C16.7108 24.042 16.4437 24.0138 16.2327 23.8685L11.9999 20.9482L7.76709 23.8685C7.55615 24.0138 7.28897 24.042 7.05459 23.9435C6.82022 23.8451 6.65147 23.6342 6.60459 23.3857L5.67178 18.3279L0.613967 17.3951C0.365529 17.3482 0.154592 17.1795 0.0561545 16.9451C-0.042283 16.7107 -0.014158 16.4435 0.131154 16.2326L3.05147 11.9998L0.131154 7.76697C-0.014158 7.55603 -0.042283 7.28884 0.0561545 7.05447C0.154592 6.82009 0.365529 6.65134 0.613967 6.60447L5.67178 5.67166L6.60459 0.613845C6.65147 0.365407 6.82022 0.15447 7.05459 0.0560324C7.28897 -0.0424051 7.55615 -0.0142801 7.76709 0.131032L11.9999 3.05134L16.2327 0.131032C16.4437 -0.0142801 16.7108 -0.0424051 16.9452 0.0560324ZM7.4999 11.9998C7.4999 10.8063 7.97401 9.66172 8.81792 8.8178C9.66184 7.97389 10.8064 7.49978 11.9999 7.49978C13.1934 7.49978 14.338 7.97389 15.1819 8.8178C16.0258 9.66172 16.4999 10.8063 16.4999 11.9998C16.4999 13.1933 16.0258 14.3378 15.1819 15.1818C14.338 16.0257 13.1934 16.4998 11.9999 16.4998C10.8064 16.4998 9.66184 16.0257 8.81792 15.1818C7.97401 14.3378 7.4999 13.1933 7.4999 11.9998ZM17.9999 11.9998C17.9999 10.4085 17.3678 8.88236 16.2425 7.75714C15.1173 6.63192 13.5912 5.99978 11.9999 5.99978C10.4086 5.99978 8.88248 6.63192 7.75726 7.75714C6.63204 8.88236 5.9999 10.4085 5.9999 11.9998C5.9999 13.5911 6.63204 15.1172 7.75726 16.2424C8.88248 17.3676 10.4086 17.9998 11.9999 17.9998C13.5912 17.9998 15.1173 17.3676 16.2425 16.2424C17.3678 15.1172 17.9999 13.5911 17.9999 11.9998Z" fill="white"/>
</g>
<defs>
<clipPath id="clip0_60_1029">
<rect width="24" height="24" fill="white"/>
</clipPath>
</defs>
</svg>
