<svg width="76" height="46" viewBox="0 0 76 46" fill="none" xmlns="http://www.w3.org/2000/svg">
<path d="M38 0C27.854 0 21.546 5.09833 19 15.3333C22.8 10.235 27.246 8.31833 32.3 9.58333C35.188 10.3117 37.278 12.42 39.558 14.7583C43.282 18.5917 47.5 23 57 23C67.146 23 73.454 17.9017 76 7.66667C72.2 12.765 67.754 14.6817 62.7 13.4167C59.812 12.6883 57.76 10.58 55.442 8.24166C51.718 4.40833 47.5 0 38 0ZM19 23C8.854 23 2.546 28.0983 0 38.3333C3.8 33.235 8.246 31.3183 13.3 32.5833C16.188 33.3117 18.24 35.42 20.558 37.7583C24.282 41.5917 28.5 46 38 46C48.146 46 54.454 40.9017 57 30.6667C53.2 35.765 48.754 37.6817 43.7 36.4167C40.812 35.6883 38.76 33.58 36.442 31.2417C32.718 27.4083 28.5 23 19 23Z" fill="#21BEBC"/>
</svg>
