<svg width="48" height="71" viewBox="0 0 48 71" fill="none" xmlns="http://www.w3.org/2000/svg">
<g clip-path="url(#clip0_83_305)">
<path d="M12 71C18.624 71 24 65.6987 24 59.1667V47.3333H12C5.376 47.3333 0 52.6347 0 59.1667C0 65.6987 5.376 71 12 71Z" fill="#0ACF83"/>
<path d="M0 35.5C0 28.968 5.376 23.6667 12 23.6667H24V47.3333H12C5.376 47.3333 0 42.032 0 35.5Z" fill="#A259FF"/>
<path d="M0 11.8333C0 5.30133 5.376 0 12 0H24V23.6667H12C5.376 23.6667 0 18.3653 0 11.8333Z" fill="#F24E1E"/>
<path d="M24 0H36C42.624 0 48 5.30133 48 11.8333C48 18.3653 42.624 23.6667 36 23.6667H24V0Z" fill="#FF7262"/>
<path d="M48 35.5C48 42.032 42.624 47.3333 36 47.3333C29.376 47.3333 24 42.032 24 35.5C24 28.968 29.376 23.6667 36 23.6667C42.624 23.6667 48 28.968 48 35.5Z" fill="#1ABCFE"/>
</g>
<defs>
<clipPath id="clip0_83_305">
<rect width="48" height="71" fill="white"/>
</clipPath>
</defs>
</svg>
