<svg width="28" height="28" viewBox="0 0 28 28" fill="none" xmlns="http://www.w3.org/2000/svg">
<g clip-path="url(#clip0_67_449)">
<path d="M22.7111 20.7822C20.6849 20.7593 18.7205 20.0815 17.1114 18.8499C15.5023 17.6184 14.3349 15.8993 13.7835 13.9494C13.2322 11.9995 13.3265 9.92361 14.0524 8.03179C14.7784 6.13998 16.0969 4.53382 17.8111 3.45331C16.945 3.22814 16.0539 3.11316 15.1589 3.11108C12.271 3.11108 9.50136 4.2583 7.4593 6.30037C5.41724 8.34243 4.27002 11.1121 4.27002 14C4.27002 16.8879 5.41724 19.6575 7.4593 21.6996C9.50136 23.7416 12.271 24.8889 15.1589 24.8889C16.7949 24.8874 18.409 24.5125 19.8782 23.7927C21.3473 23.073 22.6328 22.0273 23.6367 20.7355C23.3292 20.7668 23.0202 20.7824 22.7111 20.7822Z" fill="black"/>
</g>
<defs>
<clipPath id="clip0_67_449">
<rect width="28" height="28" fill="white"/>
</clipPath>
</defs>
</svg>
